<svg width="512" height="512" viewBox="0 0 512 512" fill="none" xmlns="http://www.w3.org/2000/svg">
<path d="M87.9062 48.9045C65.7969 48.9045 48 66.7134 48 88.8265V432.281C48 454.409 65.7969 472.203 87.9062 472.203H424.078C446.203 472.203 464 454.409 464 432.281V144.499C464 118.035 442.562 96.5926 416.109 96.5926H232C222.188 96.5926 213.219 91.0565 208.812 82.2924L202.797 70.347C196.172 57.2008 182.719 48.9045 168 48.9045H87.9062Z" fill="#438DE6"/>
<path d="M263.906 144.717C252.922 144.717 243 149.115 235.797 156.257C226.703 165.255 214.266 176.655 201.266 176.655H87.9062C65.7969 176.655 48 194.464 48 216.577V432.281C48 454.409 65.7969 472.203 87.9062 472.203H424.078C446.203 472.203 464 454.409 464 432.281V184.639C464 162.526 446.203 144.717 424.078 144.717H263.906Z" fill="url(#paint0_linear_5_5)"/>
<path d="M263.906 128.749C252.922 128.749 243 133.146 235.797 140.288C226.703 149.287 214.266 160.686 201.266 160.686H87.9062C65.7969 160.686 48 178.495 48 200.608V424.078C48 446.191 65.7969 464 87.9062 464H424.078C446.203 464 464 446.191 464 424.078V168.671C464 146.558 446.203 128.749 424.078 128.749H263.906Z" fill="#A4CAEE"/>
<path d="M231.184 266.136L220.704 254.846L171 308.398L220.704 361.949L231.184 350.659L191.959 308.398L231.184 266.136Z" fill="#428CE6"/>
<path d="M225.944 364.288H233.355V356.304H225.944V364.288Z" fill="#428CE6"/>
<path d="M225.944 260.491H233.355V252.507H225.944V260.491Z" fill="#428CE6"/>
<path d="M225.944 268.476C230.055 268.476 233.355 264.889 233.355 260.491C233.355 256.062 230.055 252.507 225.944 252.507C221.833 252.507 218.533 256.062 218.533 260.491C218.533 264.889 221.833 268.476 225.944 268.476Z" fill="#428CE6"/>
<path d="M225.944 364.289C230.055 364.289 233.355 360.702 233.355 356.304C233.355 351.875 230.055 348.32 225.944 348.32C221.833 348.32 218.533 351.875 218.533 356.304C218.533 360.702 221.833 364.289 225.944 364.289Z" fill="#428CE6"/>
<path d="M280.483 350.659L290.963 361.949L340.667 308.398L290.963 254.846L280.483 266.136L319.708 308.398L280.483 350.659Z" fill="#428CE6"/>
<path d="M285.723 252.507H278.312V260.491H285.723V252.507Z" fill="#428CE6"/>
<path d="M285.723 356.304H278.312V364.289H285.723V356.304Z" fill="#428CE6"/>
<path d="M285.723 348.32C281.612 348.32 278.312 351.906 278.312 356.304C278.312 360.733 281.612 364.289 285.723 364.289C289.834 364.289 293.134 360.733 293.134 356.304C293.134 351.906 289.834 348.32 285.723 348.32Z" fill="#428CE6"/>
<path d="M285.723 252.507C281.612 252.507 278.312 256.094 278.312 260.491C278.312 264.92 281.612 268.476 285.723 268.476C289.834 268.476 293.134 264.92 293.134 260.491C293.134 256.094 289.834 252.507 285.723 252.507Z" fill="#428CE6"/>
<defs>
<linearGradient id="paint0_linear_5_5" x1="47.9992" y1="448.123" x2="463.999" y2="448.123" gradientUnits="userSpaceOnUse">
<stop stop-color="#62A0EA"/>
<stop offset="0.0576991" stop-color="#AFD4FF"/>
<stop offset="0.122204" stop-color="#62A0EA"/>
<stop offset="0.873306" stop-color="#62A0EA"/>
<stop offset="0.955997" stop-color="#C0D5EA"/>
<stop offset="1" stop-color="#62A0EA"/>
</linearGradient>
</defs>
</svg>
